PathFileType	4	(X/Y/Z)	 3.0Hz3min.trc
DataRate	CameraRate	NumFrames	NumMarkers	Units	OrigDataRate	OrigDataStartFrame	OrigNumFrames
200	200	8	35	m	200	876	1000
Frame#	Time	C7			LSH			RSH			MAN			RASI			LASI			HIPR			HIPL			RPSI			LPSI			COX			RTHI1			RTHI2			RTHI3			RTHI4			RSHA1			RSHA2			RSHA3			RSHA4			RHEEL			RMET5			RMET1			RTOE			LTHI1			LTHI2			LTHI3			LTHI4			LSHA1			LSHA2			LSHA3			LSHA4			LHEEL			LMET5			LMET1			LTOE			
		X1	Y1	Z1	X2	Y2	Z2	X3	Y3	Z3	X4	Y4	Z4	X5	Y5	Z5	X6	Y6	Z6	X7	Y7	Z7	X8	Y8	Z8	X9	Y9	Z9	X10	Y10	Z10	X11	Y11	Z11	X12	Y12	Z12	X13	Y13	Z13	X14	Y14	Z14	X15	Y15	Z15	X16	Y16	Z16	X17	Y17	Z17	X18	Y18	Z18	X19	Y19	Z19	X20	Y20	Z20	X21	Y21	Z21	X22	Y22	Z22	X23	Y23	Z23	X24	Y24	Z24	X25	Y25	Z25	X26	Y26	Z26	X27	Y27	Z27	X28	Y28	Z28	X29	Y29	Z29	X30	Y30	Z30	X31	Y31	Z31	X32	Y32	Z32	X33	Y33	Z33	X34	Y34	Z34	X35	Y35	Z35	
876	4.3800	-0.310319	1.451075	-0.587577	-0.233357	1.452523	-0.749419	-0.260239	1.432076	-0.418653	-0.187686	1.411503	-0.581138	-0.165712	1.008042	-0.480262	-0.149232	1.007389	-0.690598	-0.231646	1.054915	-0.447197	-0.195880	1.067864	-0.724656	-0.322079	1.048971	-0.543796	-0.311856	1.049559	-0.649412	-0.319975	1.056210	-0.599286	-0.290703	0.812245	-0.425927	-0.275446	0.754596	-0.418231	-0.215418	0.769176	-0.398257	-0.223079	0.830370	-0.402585	-0.311693	0.399284	-0.398966	-0.321245	0.357781	-0.404023	-0.261275	0.349945	-0.396605	-0.255227	0.390109	-0.396052	-0.381860	0.134541	-0.452875	-0.259617	0.052297	-0.384176	-0.214143	0.054914	-0.447449	-0.193229	0.046894	-0.443768	-0.246144	0.791346	-0.773807	-0.220687	0.735329	-0.775545	-0.159443	0.756627	-0.768861	-0.177529	0.813570	-0.767185	-0.312105	0.379475	-0.790911	-0.327192	0.341672	-0.790323	-0.266685	0.324662	-0.790008	-0.259109	0.367993	-0.790582	-0.397763	0.135214	-0.760115	-0.264924	0.054566	-0.802407	-0.232824	0.059867	-0.736526	-0.211490	0.050201	-0.738638	
877	4.3850	-0.310294	1.451075	-0.587481	-0.233387	1.452439	-0.749478	-0.259784	1.432046	-0.418532	-0.187633	1.411457	-0.581102	-0.166201	1.007927	-0.480181	-0.149454	1.007334	-0.690580	-0.232306	1.054820	-0.447190	-0.196065	1.067790	-0.724689	-0.322434	1.049294	-0.543945	-0.312076	1.049988	-0.649578	-0.320266	1.056629	-0.599421	-0.291072	0.811727	-0.426404	-0.275610	0.754147	-0.418711	-0.215717	0.768943	-0.398471	-0.223640	0.830126	-0.402741	-0.311340	0.399683	-0.398946	-0.321103	0.358226	-0.403966	-0.261155	0.350100	-0.396748	-0.254912	0.390229	-0.396295	-0.382987	0.134733	-0.452565	-0.260027	0.053570	-0.383775	-0.214783	0.055854	-0.447172	-0.193805	0.047828	-0.443472	-0.246436	0.790616	-0.773630	-0.220765	0.734694	-0.775315	-0.159583	0.756248	-0.768876	-0.177894	0.813127	-0.767272	-0.311890	0.379887	-0.791150	-0.327159	0.342141	-0.790647	-0.266736	0.324849	-0.790226	-0.258951	0.368145	-0.790732	-0.398770	0.135321	-0.760799	-0.265119	0.055881	-0.803014	-0.233210	0.061033	-0.737015	-0.211772	0.051344	-0.739070	
878	4.3900	-0.310259	1.450850	-0.587396	-0.233387	1.452033	-0.749633	-0.259374	1.431664	-0.418337	-0.187564	1.411156	-0.581078	-0.166708	1.007589	-0.480035	-0.149700	1.007084	-0.690583	-0.233053	1.054434	-0.447173	-0.196355	1.067458	-0.724748	-0.322848	1.049216	-0.544085	-0.312373	1.050041	-0.649696	-0.320613	1.056635	-0.599520	-0.291452	0.811000	-0.426825	-0.275767	0.753485	-0.419136	-0.215979	0.768507	-0.398747	-0.224178	0.829677	-0.402958	-0.310972	0.399901	-0.398977	-0.320961	0.358493	-0.403958	-0.261046	0.350048	-0.396922	-0.254593	0.390143	-0.396592	-0.384231	0.134796	-0.452296	-0.260600	0.054608	-0.383550	-0.215620	0.056569	-0.447107	-0.194581	0.048528	-0.443409	-0.246647	0.789669	-0.773498	-0.220736	0.733859	-0.775058	-0.159644	0.755693	-0.768755	-0.178205	0.812498	-0.767287	-0.311653	0.380119	-0.791364	-0.327126	0.342448	-0.790941	-0.266798	0.324834	-0.790392	-0.258779	0.368089	-0.790842	-0.399897	0.135298	-0.761444	-0.265442	0.057054	-0.803514	-0.233770	0.062038	-0.737374	-0.212228	0.052336	-0.739362	
879	4.3950	-0.310214	1.450402	-0.587323	-0.233352	1.451305	-0.749876	-0.259011	1.430939	-0.418069	-0.187463	1.410586	-0.581074	-0.167224	1.007025	-0.479832	-0.149974	1.006637	-0.690605	-0.233860	1.053764	-0.447148	-0.196743	1.066877	-0.724834	-0.323320	1.048739	-0.544220	-0.312743	1.049714	-0.649773	-0.321014	1.056231	-0.599590	-0.291837	0.810081	-0.427173	-0.275918	0.752637	-0.419503	-0.216193	0.767875	-0.399086	-0.224673	0.829030	-0.403234	-0.310591	0.399911	-0.399058	-0.320833	0.358557	-0.403992	-0.260951	0.349777	-0.397140	-0.254267	0.389826	-0.396921	-0.385591	0.134732	-0.452078	-0.261317	0.055393	-0.383513	-0.216649	0.057055	-0.447279	-0.195544	0.048989	-0.443615	-0.246777	0.788543	-0.773408	-0.220607	0.732848	-0.774781	-0.159624	0.754990	-0.768507	-0.178457	0.811713	-0.767226	-0.311395	0.380152	-0.791555	-0.327090	0.342576	-0.791209	-0.266868	0.324606	-0.790506	-0.258592	0.367821	-0.790909	-0.401128	0.135153	-0.762046	-0.265900	0.058043	-0.803899	-0.234503	0.062852	-0.737607	-0.212863	0.053138	-0.739517	
880	4.4000	-0.310159	1.449729	-0.587260	-0.233290	1.450268	-0.750195	-0.258693	1.429879	-0.417739	-0.187319	1.409750	-0.581093	-0.167750	1.006233	-0.479582	-0.150279	1.005989	-0.690640	-0.234710	1.052816	-0.447113	-0.197220	1.066058	-0.724948	-0.323846	1.047867	-0.544348	-0.313183	1.049010	-0.649820	-0.321459	1.055429	-0.599636	-0.292216	0.808965	-0.427431	-0.276049	0.751605	-0.419815	-0.216354	0.767047	-0.399478	-0.225108	0.828175	-0.403566	-0.310201	0.399706	-0.399155	-0.320718	0.358411	-0.404054	-0.260870	0.349263	-0.397413	-0.253939	0.389264	-0.397276	-0.387055	0.134537	-0.451920	-0.262171	0.055915	-0.383665	-0.217857	0.057293	-0.447689	-0.196685	0.049200	-0.444096	-0.246827	0.787268	-0.773351	-0.220384	0.731691	-0.774489	-0.159530	0.754155	-0.768143	-0.178641	0.810792	-0.767087	-0.311112	0.379983	-0.791725	-0.327047	0.342513	-0.791448	-0.266936	0.324163	-0.790569	-0.258391	0.367328	-0.790931	-0.402447	0.134895	-0.762594	-0.266516	0.058805	-0.804172	-0.235409	0.063437	-0.737721	-0.213679	0.053708	-0.739543	
881	4.4050	-0.310093	1.448833	-0.587207	-0.233215	1.448937	-0.750573	-0.258413	1.428509	-0.417354	-0.187167	1.408656	-0.581132	-0.168279	1.005207	-0.479291	-0.150617	1.005131	-0.690687	-0.235567	1.051591	-0.447075	-0.197772	1.064999	-0.725085	-0.324419	1.046614	-0.544463	-0.313686	1.047935	-0.649847	-0.321933	1.054234	-0.599666	-0.292574	0.807667	-0.427606	-0.276150	0.750386	-0.420070	-0.216450	0.766028	-0.399919	-0.225474	0.827121	-0.403939	-0.309806	0.399266	-0.399258	-0.320616	0.358039	-0.404138	-0.260805	0.348504	-0.397738	-0.253615	0.388448	-0.397644	-0.388630	0.134207	-0.451831	-0.263158	0.056144	-0.384009	-0.219238	0.057266	-0.448335	-0.197998	0.049136	-0.444844	-0.246794	0.785860	-0.773319	-0.220070	0.730410	-0.774188	-0.159361	0.753195	-0.767677	-0.178754	0.809744	-0.766869	-0.310807	0.379603	-0.791880	-0.326990	0.342250	-0.791660	-0.267001	0.323498	-0.790581	-0.258173	0.366615	-0.790914	-0.403839	0.134532	-0.763084	-0.267310	0.059287	-0.804331	-0.236491	0.063756	-0.737730	-0.214687	0.054001	-0.739455	
882	4.4100	-0.310013	1.447701	-0.587161	-0.233108	1.447303	-0.750997	-0.258166	1.426828	-0.416926	-0.187007	1.407305	-0.581187	-0.168802	1.003941	-0.478969	-0.150991	1.004058	-0.690741	-0.236418	1.050099	-0.447027	-0.198389	1.063697	-0.725239	-0.325023	1.044997	-0.544572	-0.314245	1.046495	-0.649854	-0.322428	1.052653	-0.599681	-0.292887	0.806179	-0.427703	-0.276201	0.748974	-0.420269	-0.216467	0.764814	-0.400404	-0.225753	0.825874	-0.404278	-0.309409	0.398578	-0.399365	-0.320533	0.357412	-0.404244	-0.260755	0.347486	-0.398110	-0.253296	0.387368	-0.398036	-0.390295	0.133751	-0.451820	-0.264284	0.056048	-0.384548	-0.220784	0.056947	-0.449198	-0.199482	0.048759	-0.445833	-0.246673	0.784334	-0.773302	-0.219673	0.729012	-0.773882	-0.159114	0.752113	-0.767124	-0.178784	0.808571	-0.766576	-0.310483	0.379006	-0.792025	-0.326920	0.341787	-0.791871	-0.267061	0.322610	-0.790550	-0.257942	0.365667	-0.790862	-0.405292	0.134079	-0.763506	-0.268297	0.059449	-0.804384	-0.237750	0.063766	-0.737646	-0.215887	0.053979	-0.739273	
883	4.4150	-0.309920	1.446331	-0.587123	-0.232946	1.445381	-0.751452	-0.257943	1.424867	-0.416466	-0.186851	1.405703	-0.581255	-0.169317	1.002435	-0.478616	-0.151400	1.002764	-0.690801	-0.237270	1.048337	-0.446965	-0.199057	1.062149	-0.725406	-0.325682	1.043049	-0.544656	-0.314851	1.044703	-0.649851	-0.322968	1.050746	-0.599684	-0.293134	0.804490	-0.427740	-0.276182	0.747371	-0.420420	-0.216394	0.763403	-0.400919	-0.225934	0.824417	-0.404640	-0.309007	0.397634	-0.399456	-0.320456	0.356547	-0.404347	-0.260719	0.346205	-0.398535	-0.252979	0.386025	-0.398451	-0.392032	0.133170	-0.451895	-0.265564	0.055597	-0.385276	-0.222497	0.056307	-0.450258	-0.201140	0.048034	-0.447040	-0.246457	0.782692	-0.773294	-0.219196	0.727494	-0.773577	-0.158792	0.750888	-0.766504	-0.178723	0.807262	-0.766212	-0.310134	0.378190	-0.792173	-0.326832	0.341107	-0.792092	-0.267112	0.321496	-0.790483	-0.257695	0.364499	-0.790786	-0.406798	0.133531	-0.763860	-0.269486	0.059257	-0.804335	-0.239186	0.063438	-0.737479	-0.217284	0.053604	-0.739011	
